<svg id="All_stuff" data-name="All stuff" xmlns="http://www.w3.org/2000/svg" viewBox="0 0 425.9639 305.0286"><defs><style>.cls-1{fill:none;stroke:#231f20;stroke-miterlimit:10;}.cls-2,.cls-20{font-size:12px;font-family:MyriadPro-Regular, Myriad Pro;}.cls-14,.cls-2,.cls-20{fill:#231f20;}.cls-3{letter-spacing:0.01em;}.cls-4{letter-spacing:-0.013em;}.cls-5{letter-spacing:-0.0059em;}.cls-6{letter-spacing:-0.01em;}.cls-7{letter-spacing:-0.016em;}.cls-8{letter-spacing:-0.009em;}.cls-9{letter-spacing:-0.012em;}.cls-10{letter-spacing:-0.006em;}.cls-11{letter-spacing:-0.003em;}.cls-12{letter-spacing:0.013em;}.cls-13{letter-spacing:0.004em;}.cls-15{letter-spacing:-0.004em;}.cls-16{letter-spacing:0.006em;}.cls-17{letter-spacing:-0.016em;}.cls-18{letter-spacing:-0.0099em;}.cls-19{letter-spacing:-0.007em;}.cls-20{letter-spacing:-0.033em;}.cls-21{letter-spacing:-0.0001em;}.cls-22{letter-spacing:-0.004em;}.cls-23{letter-spacing:-0.006em;}.cls-24{letter-spacing:-0.031em;}.cls-25{letter-spacing:0.025em;}.cls-26{letter-spacing:-0.011em;}.cls-27{letter-spacing:-0.005em;}.cls-28{letter-spacing:0.017em;}.cls-29{letter-spacing:-0.071em;}.cls-30{letter-spacing:0.0129em;}</style></defs><title>architecture</title><rect class="cls-1" x="231.5687" y="131.9733" width="158.2901" height="71.3511"/><rect class="cls-1" x="237.855" y="138.0191" width="67.6031" height="43.145"/><rect class="cls-1" x="315.9695" y="138.0191" width="67.6031" height="43.145"/><text class="cls-2" transform="translate(249.3366 161.6536)"><tspan class="cls-3">I</tspan><tspan x="2.9883" y="0">n</tspan><tspan class="cls-4" x="9.6484" y="0">f</tspan><tspan x="12.9961" y="0">os</tspan><tspan class="cls-5" x="24.3359" y="0">t</tspan><tspan x="28.2363" y="0">o</tspan><tspan class="cls-6" x="34.8242" y="0">r</tspan><tspan x="38.6279" y="0">e</tspan></text><text class="cls-2" transform="translate(327.5414 161.6536)"><tspan class="cls-7">P</tspan><tspan class="cls-6" x="6.1924" y="0">r</tspan><tspan x="9.9961" y="0">e</tspan><tspan class="cls-8" x="16.0078" y="0">f</tspan><tspan x="19.4033" y="0">s</tspan><tspan class="cls-5" x="24.1553" y="0">t</tspan><tspan x="28.0557" y="0">o</tspan><tspan class="cls-6" x="34.6436" y="0">r</tspan><tspan x="38.4473" y="0">e</tspan></text><rect class="cls-1" x="206.5611" y="0.5" width="202.5344" height="95.084"/><rect class="cls-1" x="227.1718" y="59.3092" width="55.5115" height="28.0305"/><text class="cls-2" transform="translate(234.7194 77.0352)"><tspan class="cls-9">A</tspan><tspan x="7.2002" y="0">dap</tspan><tspan class="cls-10" x="26.5801" y="0">t</tspan><tspan x="30.4795" y="0">er</tspan></text><rect class="cls-1" x="227.1718" y="18.6374" width="55.5115" height="28.0305"/><text class="cls-2" transform="translate(234.5036 29.0811)"><tspan class="cls-11">e</tspan><tspan class="cls-12" x="5.9756" y="0">x</tspan><tspan class="cls-10" x="11.6875" y="0">t</tspan><tspan x="15.5869" y="0">e</tspan><tspan class="cls-13" x="21.5986" y="0">r</tspan><tspan x="25.5703" y="0">nal</tspan><tspan x="12.126" y="14.3999">API</tspan></text><line class="cls-1" x1="254.9275" y1="59.3092" x2="254.9275" y2="50.2561"/><polygon class="cls-14" points="257.421 50.986 254.927 46.668 252.434 50.986 257.421 50.986"/><text class="cls-2" transform="translate(212.5452 11.7679)">D<tspan class="cls-15" x="7.9922" y="0">a</tspan><tspan x="13.7285" y="0">ta </tspan><tspan class="cls-16" x="26.0283" y="0">S</tspan><tspan x="32.0166" y="0">ou</tspan><tspan class="cls-6" x="45.2168" y="0">r</tspan><tspan class="cls-10" x="49.0205" y="0">c</tspan><tspan x="54.3242" y="0">es (</tspan><tspan class="cls-16" x="71.04" y="0">M</tspan><tspan x="80.7598" y="0">oni</tspan><tspan class="cls-10" x="96.8154" y="0">t</tspan><tspan x="100.7148" y="0">o</tspan><tspan class="cls-13" x="107.3027" y="0">r</tspan><tspan x="111.2744" y="0">ing E</tspan><tspan class="cls-15" x="135.8984" y="0">n</tspan><tspan x="142.5107" y="0">tities)</tspan></text><rect class="cls-1" x="289.3397" y="59.3092" width="55.5115" height="28.0305"/><text class="cls-2" transform="translate(296.8874 77.0352)"><tspan class="cls-9">A</tspan><tspan x="7.2002" y="0">dap</tspan><tspan class="cls-10" x="26.5801" y="0">t</tspan><tspan x="30.4795" y="0">er</tspan></text><rect class="cls-1" x="289.3397" y="18.6374" width="55.5115" height="28.0305"/><text class="cls-2" transform="translate(296.6716 29.0811)"><tspan class="cls-11">e</tspan><tspan class="cls-12" x="5.9756" y="0">x</tspan><tspan class="cls-10" x="11.6875" y="0">t</tspan><tspan x="15.5869" y="0">e</tspan><tspan class="cls-13" x="21.5986" y="0">r</tspan><tspan x="25.5703" y="0">nal</tspan><tspan x="12.126" y="14.3999">API</tspan></text><line class="cls-1" x1="317.0954" y1="59.3092" x2="317.0954" y2="50.2561"/><polygon class="cls-14" points="319.589 50.986 317.095 46.668 314.602 50.986 319.589 50.986"/><circle class="cls-14" cx="365.0971" cy="51.8206" r="2.4046"/><circle class="cls-14" cx="382.105" cy="51.8206" r="2.4046"/><circle class="cls-14" cx="373.601" cy="51.8206" r="2.4046"/><line class="cls-1" x1="262.229" y1="138.0191" x2="262.229" y2="99.1721"/><polygon class="cls-14" points="264.722 99.902 262.229 95.584 259.736 99.902 264.722 99.902"/><line class="cls-1" x1="279.4122" y1="95.584" x2="279.4122" y2="134.431"/><polygon class="cls-14" points="276.919 133.702 279.412 138.019 281.905 133.702 276.919 133.702"/><text class="cls-2" transform="translate(218.7513 108.9704)"><tspan class="cls-13">R</tspan><tspan x="6.5039" y="0">equest </tspan><tspan x="3.6113" y="14.3999">Upd</tspan><tspan class="cls-15" x="24.9707" y="14.3999">a</tspan><tspan class="cls-10" x="30.707" y="14.3999">t</tspan><tspan x="34.6064" y="14.3999">e</tspan></text><text class="cls-2" transform="translate(282.0189 108.9705)"><tspan class="cls-17">P</tspan><tspan class="cls-18" x="6.1914" y="0">r</tspan><tspan class="cls-19" x="9.9961" y="0">o</tspan><tspan x="16.5" y="0">vide</tspan><tspan class="cls-3" x="0" y="14.3999">I</tspan><tspan x="2.9883" y="14.3999">n</tspan><tspan class="cls-4" x="9.6484" y="14.3999">f</tspan><tspan x="12.9961" y="14.3999">o</tspan></text><rect class="cls-1" x="22.3969" y="148.8931" width="64.4733" height="37.5115"/><text class="cls-20" transform="translate(35.9022 170.982)">W<tspan class="cls-15" x="9.7568" y="0">a</tspan><tspan class="cls-21" x="15.4932" y="0">tson</tspan></text><line class="cls-1" x1="86.8702" y1="160.6392" x2="227.9805" y2="160.6392"/><polygon class="cls-14" points="227.251 163.132 231.569 160.639 227.251 158.146 227.251 163.132"/><text class="cls-2" transform="translate(144.4681 158.3848)"><tspan class="cls-3">I</tspan><tspan class="cls-22" x="2.9883" y="0">n</tspan><tspan class="cls-23" x="9.5996" y="0">t</tspan><tspan x="13.4995" y="0">e</tspan><tspan class="cls-15" x="19.5112" y="0">n</tspan><tspan x="26.1235" y="0">t</tspan></text><rect class="cls-1" x="23.4103" y="26.584" width="118.7309" height="85.5801"/><rect class="cls-1" x="31.8588" y="74.0649" width="55.5115" height="28.0305"/><text class="cls-2" transform="translate(39.4065 91.791)"><tspan class="cls-9">A</tspan><tspan x="7.2002" y="0">dap</tspan><tspan class="cls-10" x="26.5801" y="0">t</tspan><tspan x="30.4795" y="0">er</tspan></text><rect class="cls-1" x="31.8588" y="33.3931" width="55.5115" height="28.0305"/><text class="cls-2" transform="translate(34.1809 51.1975)">Ch<tspan class="cls-15" x="13.6201" y="0">a</tspan><tspan class="cls-10" x="19.3564" y="0">t</tspan><tspan x="23.2559" y="0">clie</tspan><tspan class="cls-15" x="40.2832" y="0">n</tspan><tspan x="46.8955" y="0">t</tspan></text><line class="cls-1" x1="59.6145" y1="70.4768" x2="59.6145" y2="61.4237"/><polygon class="cls-14" points="62.108 69.747 59.615 74.065 57.121 69.747 62.108 69.747"/><circle class="cls-14" cx="107.4961" cy="68.0191" r="2.4046"/><circle class="cls-14" cx="124.5039" cy="68.0191" r="2.4046"/><circle class="cls-14" cx="116" cy="68.0191" r="2.4046"/><line class="cls-1" x1="59.6145" y1="102.0954" x2="59.6145" y2="145.305"/><polygon class="cls-14" points="57.121 144.576 59.615 148.893 62.108 144.576 57.121 144.576"/><line class="cls-1" x1="231.5687" y1="173.3129" x2="90.4583" y2="173.3129"/><polygon class="cls-14" points="91.188 170.82 86.87 173.313 91.188 175.806 91.188 170.82"/><text class="cls-2" transform="translate(61.9696 124.8406)"><tspan class="cls-24">F</tspan><tspan x="5.4717" y="0">o</tspan><tspan class="cls-25" x="12.0596" y="0">r</tspan><tspan class="cls-15" x="16.2832" y="0">w</tspan><tspan x="25.0674" y="0">a</tspan><tspan class="cls-6" x="30.8516" y="0">r</tspan><tspan x="34.6553" y="0">d</tspan><tspan class="cls-13" x="0" y="14.3999">R</tspan><tspan x="6.5039" y="14.3999">equest</tspan></text><text class="cls-2" transform="translate(130.6181 182.5888)"><tspan class="cls-11">A</tspan><tspan x="7.3076" y="0">ns</tspan><tspan class="cls-6" x="18.7197" y="0">w</tspan><tspan x="27.4316" y="0">e</tspan><tspan class="cls-18" x="33.4434" y="0">r</tspan><tspan x="37.248" y="0">d</tspan><tspan class="cls-15" x="44.0156" y="0">a</tspan><tspan class="cls-21" x="49.752" y="0">ta</tspan></text><text class="cls-2" transform="translate(278.2014 195.7794)"><tspan class="cls-26">C</tspan><tspan x="6.8281" y="0">e</tspan><tspan class="cls-15" x="12.8398" y="0">n</tspan><tspan x="19.4521" y="0">t</tspan><tspan class="cls-27" x="23.4238" y="0">r</tspan><tspan x="27.2881" y="0">al Node</tspan></text><rect class="cls-1" x="233.5055" y="267.0172" width="64.4733" height="37.5115"/><text class="cls-2" transform="translate(255.6329 281.514)">S<tspan class="cls-28" x="5.916" y="0">k</tspan><tspan x="11.748" y="0">ill</tspan><tspan x="-14.7607" y="14.3999">(</tspan><tspan class="cls-10" x="-11.3525" y="14.3999">U</tspan><tspan x="-3.6611" y="14.3999">se case)</tspan></text><rect class="cls-1" x="321.891" y="267.0172" width="64.4733" height="37.5115"/><text class="cls-2" transform="translate(344.0184 281.514)">S<tspan class="cls-28" x="5.916" y="0">k</tspan><tspan x="11.748" y="0">ill</tspan><tspan x="-14.7607" y="14.3999">(</tspan><tspan class="cls-10" x="-11.3525" y="14.3999">U</tspan><tspan x="-3.6611" y="14.3999">se case)</tspan></text><circle class="cls-14" cx="406.5515" cy="285.7729" r="2.4046"/><circle class="cls-14" cx="423.5593" cy="285.7729" r="2.4046"/><circle class="cls-14" cx="415.0554" cy="285.7729" r="2.4046"/><line class="cls-1" x1="258.0933" y1="267.0172" x2="258.0933" y2="207.4641"/><polygon class="cls-14" points="260.587 208.194 258.093 203.876 255.6 208.194 260.587 208.194"/><line class="cls-1" x1="275.2765" y1="203.8759" x2="275.2765" y2="263.4291"/><polygon class="cls-14" points="272.783 262.7 275.277 267.017 277.77 262.7 272.783 262.7"/><text class="cls-2" transform="translate(214.6156 216.3963)"><tspan class="cls-13">R</tspan><tspan x="6.5039" y="0">equest </tspan><tspan x="17.1357" y="14.3999">D</tspan><tspan class="cls-15" x="25.1279" y="14.3999">a</tspan><tspan x="30.8643" y="14.3999">ta</tspan><tspan x="33.3594" y="28.7998">&amp;</tspan><tspan class="cls-11" x="3.251" y="43.1997">A</tspan><tspan x="10.5586" y="43.1997">ns</tspan><tspan class="cls-6" x="21.9707" y="43.1997">w</tspan><tspan x="30.6826" y="43.1997">er</tspan></text><text class="cls-2" transform="translate(277.8842 216.3959)"><tspan class="cls-7">P</tspan><tspan class="cls-6" x="6.1924" y="0">r</tspan><tspan class="cls-19" x="9.9961" y="0">o</tspan><tspan x="16.5" y="0">vide</tspan><tspan class="cls-3" x="0" y="14.3999">I</tspan><tspan x="2.9883" y="14.3999">n</tspan><tspan class="cls-4" x="9.6484" y="14.3999">f</tspan><tspan x="12.9961" y="14.3999">o</tspan><tspan x="0" y="28.7998">&amp;</tspan><tspan class="cls-13" x="0" y="43.1997">R</tspan><tspan x="6.5039" y="43.1997">equest</tspan></text><line class="cls-1" x1="344.9712" y1="267.0172" x2="344.9712" y2="207.4641"/><polygon class="cls-14" points="347.464 208.194 344.971 203.876 342.478 208.194 347.464 208.194"/><line class="cls-1" x1="362.1544" y1="203.8759" x2="362.1544" y2="263.4291"/><polygon class="cls-14" points="359.661 262.7 362.154 267.017 364.648 262.7 359.661 262.7"/><line class="cls-1" x1="47.9962" y1="148.8931" x2="47.9962" y2="105.6835"/><polygon class="cls-14" points="50.489 106.413 47.996 102.095 45.503 106.413 50.489 106.413"/><text class="cls-2" transform="translate(7.4259 124.8406)"><tspan class="cls-11">A</tspan><tspan x="7.3076" y="0">ns</tspan><tspan class="cls-6" x="18.7197" y="0">w</tspan><tspan x="27.4316" y="0">er</tspan><tspan class="cls-29" x="16.5967" y="14.3999">T</tspan><tspan class="cls-11" x="21.709" y="14.3999">e</tspan><tspan class="cls-30" x="27.6846" y="14.3999">x</tspan><tspan x="33.3955" y="14.3999">t</tspan></text></svg>