<svg id="All_stuff" data-name="All stuff" xmlns="http://www.w3.org/2000/svg" viewBox="0 0 442.0536 305.0286"><defs><style>.cls-1{fill:none;stroke:#231f20;stroke-miterlimit:10;}.cls-2,.cls-21{font-size:12px;font-family:MyriadPro-Regular, Myriad Pro;}.cls-14,.cls-2,.cls-21{fill:#231f20;}.cls-3{letter-spacing:0.01em;}.cls-4{letter-spacing:-0.013em;}.cls-5{letter-spacing:-0.0059em;}.cls-6{letter-spacing:-0.01em;}.cls-7{letter-spacing:-0.016em;}.cls-8{letter-spacing:-0.009em;}.cls-9{letter-spacing:-0.012em;}.cls-10{letter-spacing:-0.006em;}.cls-11{letter-spacing:-0.003em;}.cls-12{letter-spacing:0.013em;}.cls-13{letter-spacing:0.004em;}.cls-15{letter-spacing:-0.004em;}.cls-16{letter-spacing:0.006em;}.cls-17{letter-spacing:-0.016em;}.cls-18{letter-spacing:-0.0099em;}.cls-19{letter-spacing:-0.007em;}.cls-20{letter-spacing:-0.014em;}.cls-21{letter-spacing:-0.033em;}.cls-22{letter-spacing:-0.0001em;}.cls-23{letter-spacing:-0.004em;}.cls-24{letter-spacing:-0.006em;}.cls-25{letter-spacing:-0.031em;}.cls-26{letter-spacing:0.025em;}.cls-27{letter-spacing:-0.011em;}.cls-28{letter-spacing:-0.005em;}.cls-29{letter-spacing:0.017em;}.cls-30{letter-spacing:-0.071em;}.cls-31{letter-spacing:0.0129em;}</style></defs><title>architecture</title><rect class="cls-1" x="247.6584" y="131.9733" width="158.2901" height="71.3511"/><rect class="cls-1" x="253.9447" y="138.0191" width="67.6031" height="43.145"/><rect class="cls-1" x="332.0592" y="138.0191" width="67.6031" height="43.145"/><text class="cls-2" transform="translate(265.4263 161.6536)"><tspan class="cls-3">I</tspan><tspan x="2.9883" y="0">n</tspan><tspan class="cls-4" x="9.6484" y="0">f</tspan><tspan x="12.9961" y="0">os</tspan><tspan class="cls-5" x="24.3359" y="0">t</tspan><tspan x="28.2363" y="0">o</tspan><tspan class="cls-6" x="34.8242" y="0">r</tspan><tspan x="38.6279" y="0">e</tspan></text><text class="cls-2" transform="translate(343.6311 161.6536)"><tspan class="cls-7">P</tspan><tspan class="cls-6" x="6.1924" y="0">r</tspan><tspan x="9.9961" y="0">e</tspan><tspan class="cls-8" x="16.0078" y="0">f</tspan><tspan x="19.4033" y="0">s</tspan><tspan class="cls-5" x="24.1553" y="0">t</tspan><tspan x="28.0557" y="0">o</tspan><tspan class="cls-6" x="34.6436" y="0">r</tspan><tspan x="38.4473" y="0">e</tspan></text><rect class="cls-1" x="222.6508" y="0.5" width="202.5344" height="95.084"/><rect class="cls-1" x="243.2615" y="59.3092" width="55.5115" height="28.0305"/><text class="cls-2" transform="translate(250.8091 77.0352)"><tspan class="cls-9">A</tspan><tspan x="7.2002" y="0">dap</tspan><tspan class="cls-10" x="26.5801" y="0">t</tspan><tspan x="30.4795" y="0">er</tspan></text><rect class="cls-1" x="243.2615" y="18.6374" width="55.5115" height="28.0305"/><text class="cls-2" transform="translate(250.5933 29.0811)"><tspan class="cls-11">e</tspan><tspan class="cls-12" x="5.9756" y="0">x</tspan><tspan class="cls-10" x="11.6875" y="0">t</tspan><tspan x="15.5869" y="0">e</tspan><tspan class="cls-13" x="21.5986" y="0">r</tspan><tspan x="25.5703" y="0">nal</tspan><tspan x="12.126" y="14.3999">API</tspan></text><line class="cls-1" x1="271.0172" y1="59.3092" x2="271.0172" y2="50.2561"/><polygon class="cls-14" points="273.51 50.986 271.017 46.668 268.524 50.986 273.51 50.986"/><text class="cls-2" transform="translate(228.6349 11.7679)">D<tspan class="cls-15" x="7.9922" y="0">a</tspan><tspan x="13.7285" y="0">ta </tspan><tspan class="cls-16" x="26.0283" y="0">S</tspan><tspan x="32.0166" y="0">ou</tspan><tspan class="cls-6" x="45.2168" y="0">r</tspan><tspan class="cls-10" x="49.0205" y="0">c</tspan><tspan x="54.3242" y="0">es (</tspan><tspan class="cls-16" x="71.04" y="0">M</tspan><tspan x="80.7598" y="0">oni</tspan><tspan class="cls-10" x="96.8154" y="0">t</tspan><tspan x="100.7148" y="0">o</tspan><tspan class="cls-13" x="107.3027" y="0">r</tspan><tspan x="111.2744" y="0">ing E</tspan><tspan class="cls-15" x="135.8984" y="0">n</tspan><tspan x="142.5107" y="0">tities)</tspan></text><rect class="cls-1" x="305.4294" y="59.3092" width="55.5115" height="28.0305"/><text class="cls-2" transform="translate(312.9771 77.0352)"><tspan class="cls-9">A</tspan><tspan x="7.2002" y="0">dap</tspan><tspan class="cls-10" x="26.5801" y="0">t</tspan><tspan x="30.4795" y="0">er</tspan></text><rect class="cls-1" x="305.4294" y="18.6374" width="55.5115" height="28.0305"/><text class="cls-2" transform="translate(312.7612 29.0811)"><tspan class="cls-11">e</tspan><tspan class="cls-12" x="5.9756" y="0">x</tspan><tspan class="cls-10" x="11.6875" y="0">t</tspan><tspan x="15.5869" y="0">e</tspan><tspan class="cls-13" x="21.5986" y="0">r</tspan><tspan x="25.5703" y="0">nal</tspan><tspan x="12.126" y="14.3999">API</tspan></text><line class="cls-1" x1="333.1851" y1="59.3092" x2="333.1851" y2="50.2561"/><polygon class="cls-14" points="335.678 50.986 333.185 46.668 330.692 50.986 335.678 50.986"/><circle class="cls-14" cx="381.1868" cy="51.8206" r="2.4046"/><circle class="cls-14" cx="398.1947" cy="51.8206" r="2.4046"/><circle class="cls-14" cx="389.6907" cy="51.8206" r="2.4046"/><line class="cls-1" x1="278.3187" y1="138.0191" x2="278.3187" y2="99.1721"/><polygon class="cls-14" points="280.812 99.902 278.319 95.584 275.826 99.902 280.812 99.902"/><line class="cls-1" x1="295.5019" y1="95.584" x2="295.5019" y2="134.431"/><polygon class="cls-14" points="293.009 133.702 295.502 138.019 297.995 133.702 293.009 133.702"/><text class="cls-2" transform="translate(234.841 108.9704)"><tspan class="cls-13">R</tspan><tspan x="6.5039" y="0">equest </tspan><tspan x="3.6113" y="14.3999">Upd</tspan><tspan class="cls-15" x="24.9707" y="14.3999">a</tspan><tspan class="cls-10" x="30.707" y="14.3999">t</tspan><tspan x="34.6064" y="14.3999">e</tspan></text><text class="cls-2" transform="translate(298.1086 108.9705)"><tspan class="cls-17">P</tspan><tspan class="cls-18" x="6.1914" y="0">r</tspan><tspan class="cls-19" x="9.9961" y="0">o</tspan><tspan x="16.5" y="0">vide</tspan><tspan class="cls-3" x="0" y="14.3999">I</tspan><tspan x="2.9883" y="14.3999">n</tspan><tspan class="cls-4" x="9.6484" y="14.3999">f</tspan><tspan x="12.9961" y="14.3999">o</tspan></text><rect class="cls-1" x="0.5" y="149.6985" width="152.7939" height="66.5038"/><rect class="cls-1" x="4.4676" y="157.3244" width="64.4733" height="37.5115"/><text class="cls-2" transform="translate(24.3263 179.4133)"><tspan class="cls-20">L</tspan><tspan x="5.4961" y="0">eon</tspan></text><rect class="cls-1" x="83.8531" y="157.3244" width="64.4733" height="37.5115"/><text class="cls-21" transform="translate(97.3583 179.4133)">W<tspan class="cls-15" x="9.7568" y="0">a</tspan><tspan class="cls-22" x="15.4932" y="0">tson</tspan></text><line class="cls-1" x1="82.7575" y1="154.1641" x2="71.0364" y2="197.9962"/><text class="cls-2" transform="translate(38.5454 209.1497)"><tspan class="cls-13">R</tspan><tspan x="6.5039" y="0">equest </tspan><tspan class="cls-13" x="43.1631" y="0">R</tspan><tspan x="49.667" y="0">ou</tspan><tspan class="cls-10" x="62.8672" y="0">t</tspan><tspan x="66.7671" y="0">er</tspan></text><line class="cls-1" x1="153.2939" y1="153.6393" x2="244.0703" y2="153.6393"/><polygon class="cls-14" points="243.341 156.132 247.658 153.639 243.341 151.146 243.341 156.132"/><text class="cls-2" transform="translate(174.5577 151.3848)"><tspan class="cls-3">I</tspan><tspan class="cls-23" x="2.9883" y="0">n</tspan><tspan class="cls-24" x="9.5996" y="0">t</tspan><tspan x="13.4995" y="0">e</tspan><tspan class="cls-15" x="19.5112" y="0">n</tspan><tspan x="26.1235" y="0">t</tspan></text><rect class="cls-1" x="39.5" y="26.584" width="118.7309" height="85.5801"/><rect class="cls-1" x="47.9485" y="74.0649" width="55.5115" height="28.0305"/><text class="cls-2" transform="translate(55.4962 91.791)"><tspan class="cls-9">A</tspan><tspan x="7.2002" y="0">dap</tspan><tspan class="cls-10" x="26.5801" y="0">t</tspan><tspan x="30.4795" y="0">er</tspan></text><rect class="cls-1" x="47.9485" y="33.3931" width="55.5115" height="28.0305"/><text class="cls-2" transform="translate(50.2706 51.1975)">Ch<tspan class="cls-15" x="13.6201" y="0">a</tspan><tspan class="cls-10" x="19.3564" y="0">t</tspan><tspan x="23.2559" y="0">clie</tspan><tspan class="cls-15" x="40.2832" y="0">n</tspan><tspan x="46.8955" y="0">t</tspan></text><line class="cls-1" x1="75.7042" y1="70.4768" x2="75.7042" y2="61.4237"/><polygon class="cls-14" points="78.197 69.747 75.704 74.065 73.211 69.747 78.197 69.747"/><circle class="cls-14" cx="123.5858" cy="68.0191" r="2.4046"/><circle class="cls-14" cx="140.5936" cy="68.0191" r="2.4046"/><circle class="cls-14" cx="132.0897" cy="68.0191" r="2.4046"/><line class="cls-1" x1="75.7042" y1="102.0954" x2="75.7042" y2="145.6714"/><polygon class="cls-14" points="73.211 144.942 75.704 149.26 78.197 144.942 73.211 144.942"/><line class="cls-1" x1="247.6584" y1="166.313" x2="156.882" y2="166.313"/><polygon class="cls-14" points="157.611 163.82 153.294 166.313 157.611 168.806 157.611 163.82"/><text class="cls-2" transform="translate(78.0593 124.8406)"><tspan class="cls-25">F</tspan><tspan x="5.4717" y="0">o</tspan><tspan class="cls-26" x="12.0596" y="0">r</tspan><tspan class="cls-15" x="16.2832" y="0">w</tspan><tspan x="25.0674" y="0">a</tspan><tspan class="cls-6" x="30.8516" y="0">r</tspan><tspan x="34.6553" y="0">d</tspan><tspan class="cls-13" x="0" y="14.3999">R</tspan><tspan x="6.5039" y="14.3999">equest</tspan></text><text class="cls-2" transform="translate(163.7078 175.5888)"><tspan class="cls-11">A</tspan><tspan x="7.3076" y="0">ns</tspan><tspan class="cls-6" x="18.7197" y="0">w</tspan><tspan x="27.4316" y="0">e</tspan><tspan class="cls-18" x="33.4434" y="0">r</tspan><tspan x="37.248" y="0">d</tspan><tspan class="cls-15" x="44.0156" y="0">a</tspan><tspan class="cls-22" x="49.752" y="0">ta</tspan></text><text class="cls-2" transform="translate(294.2911 195.7794)"><tspan class="cls-27">C</tspan><tspan x="6.8281" y="0">e</tspan><tspan class="cls-15" x="12.8398" y="0">n</tspan><tspan x="19.4521" y="0">t</tspan><tspan class="cls-28" x="23.4238" y="0">r</tspan><tspan x="27.2881" y="0">al Node</tspan></text><rect class="cls-1" x="249.5952" y="267.0172" width="64.4733" height="37.5115"/><text class="cls-2" transform="translate(271.7225 281.514)">S<tspan class="cls-29" x="5.916" y="0">k</tspan><tspan x="11.748" y="0">ill</tspan><tspan x="-14.7607" y="14.3999">(</tspan><tspan class="cls-10" x="-11.3525" y="14.3999">U</tspan><tspan x="-3.6611" y="14.3999">se case)</tspan></text><rect class="cls-1" x="337.9807" y="267.0172" width="64.4733" height="37.5115"/><text class="cls-2" transform="translate(360.1081 281.514)">S<tspan class="cls-29" x="5.916" y="0">k</tspan><tspan x="11.748" y="0">ill</tspan><tspan x="-14.7607" y="14.3999">(</tspan><tspan class="cls-10" x="-11.3525" y="14.3999">U</tspan><tspan x="-3.6611" y="14.3999">se case)</tspan></text><circle class="cls-14" cx="422.6412" cy="285.7729" r="2.4046"/><circle class="cls-14" cx="439.649" cy="285.7729" r="2.4046"/><circle class="cls-14" cx="431.1451" cy="285.7729" r="2.4046"/><line class="cls-1" x1="274.183" y1="267.0172" x2="274.183" y2="207.4641"/><polygon class="cls-14" points="276.676 208.194 274.183 203.876 271.69 208.194 276.676 208.194"/><line class="cls-1" x1="291.3662" y1="203.8759" x2="291.3662" y2="263.4291"/><polygon class="cls-14" points="288.873 262.7 291.366 267.017 293.859 262.7 288.873 262.7"/><text class="cls-2" transform="translate(230.7053 216.3963)"><tspan class="cls-13">R</tspan><tspan x="6.5039" y="0">equest </tspan><tspan x="17.1357" y="14.3999">D</tspan><tspan class="cls-15" x="25.1279" y="14.3999">a</tspan><tspan x="30.8643" y="14.3999">ta</tspan><tspan x="33.3594" y="28.7998">&amp;</tspan><tspan class="cls-11" x="3.251" y="43.1997">A</tspan><tspan x="10.5586" y="43.1997">ns</tspan><tspan class="cls-6" x="21.9707" y="43.1997">w</tspan><tspan x="30.6826" y="43.1997">er</tspan></text><text class="cls-2" transform="translate(293.9739 216.3959)"><tspan class="cls-7">P</tspan><tspan class="cls-6" x="6.1924" y="0">r</tspan><tspan class="cls-19" x="9.9961" y="0">o</tspan><tspan x="16.5" y="0">vide</tspan><tspan class="cls-3" x="0" y="14.3999">I</tspan><tspan x="2.9883" y="14.3999">n</tspan><tspan class="cls-4" x="9.6484" y="14.3999">f</tspan><tspan x="12.9961" y="14.3999">o</tspan><tspan x="0" y="28.7998">&amp;</tspan><tspan class="cls-13" x="0" y="43.1997">R</tspan><tspan x="6.5039" y="43.1997">equest</tspan></text><line class="cls-1" x1="361.0609" y1="267.0172" x2="361.0609" y2="207.4641"/><polygon class="cls-14" points="363.554 208.194 361.061 203.876 358.568 208.194 363.554 208.194"/><line class="cls-1" x1="378.2441" y1="203.8759" x2="378.2441" y2="263.4291"/><polygon class="cls-14" points="375.751 262.7 378.244 267.017 380.737 262.7 375.751 262.7"/><line class="cls-1" x1="64.0859" y1="149.6985" x2="64.0859" y2="105.6835"/><polygon class="cls-14" points="66.579 106.413 64.086 102.095 61.593 106.413 66.579 106.413"/><text class="cls-2" transform="translate(23.5156 124.8406)"><tspan class="cls-11">A</tspan><tspan x="7.3076" y="0">ns</tspan><tspan class="cls-6" x="18.7197" y="0">w</tspan><tspan x="27.4316" y="0">er</tspan><tspan class="cls-30" x="16.5967" y="14.3999">T</tspan><tspan class="cls-11" x="21.709" y="14.3999">e</tspan><tspan class="cls-31" x="27.6846" y="14.3999">x</tspan><tspan x="33.3955" y="14.3999">t</tspan></text></svg>