<?xml version="1.0" encoding="utf-8"?>
<!-- Generator: Adobe Illustrator 23.0.2, SVG Export Plug-In . SVG Version: 6.00 Build 0)  -->
<svg version="1.1" xmlns="http://www.w3.org/2000/svg" xmlns:xlink="http://www.w3.org/1999/xlink" x="0px" y="0px"
	 viewBox="0 0 452.34 323.18" style="enable-background:new 0 0 452.34 323.18;" xml:space="preserve">
<style type="text/css">
	.st0{fill:none;stroke:#000000;stroke-miterlimit:10;}
	.st1{fill:none;}
	.st2{font-family:'ArialMT';}
	.st3{font-size:12px;}
	.st4{display:none;}
	.st5{display:inline;fill:none;stroke:#000000;stroke-miterlimit:10;}
</style>
<g id="All_stuff">
	<rect x="256.12" y="143.02" class="st0" width="158.29" height="71.35"/>
	<g>
		<rect x="262.41" y="149.06" class="st0" width="67.6" height="43.15"/>
		<rect x="340.52" y="149.06" class="st0" width="67.6" height="43.15"/>
	</g>
	<rect x="262.41" y="164.18" class="st1" width="67.6" height="12.92"/>
	<text transform="matrix(1 0 0 1 272.8627 172.7674)" class="st2 st3">Infostore</text>
	<rect x="340.52" y="164.18" class="st1" width="67.6" height="12.92"/>
	<text transform="matrix(1 0 0 1 349.9815 172.7674)" class="st2 st3">Prefstore</text>
	<rect x="231.11" y="11.54" class="st0" width="202.53" height="95.08"/>
	<g>
		<g>
			<rect x="251.73" y="70.35" class="st0" width="55.51" height="28.03"/>
			<rect x="251.73" y="79.56" class="st1" width="55.51" height="9.62"/>
			<text transform="matrix(1 0 0 1 258.4662 88.149)" class="st2 st3">Adapter</text>
		</g>
		<g>
			<rect x="251.73" y="29.68" class="st0" width="55.51" height="28.03"/>
			<rect x="251.73" y="31.6" class="st1" width="55.51" height="24.18"/>
			<text transform="matrix(1 0 0 1 258.1352 40.1949)"><tspan x="0" y="0" class="st2 st3">external</tspan><tspan x="11.67" y="14.4" class="st2 st3">API</tspan></text>
		</g>
		<g>
			<g>
				<line class="st0" x1="279.48" y1="70.35" x2="279.48" y2="61.3"/>
				<g>
					<polygon points="281.97,62.03 279.48,57.71 276.99,62.03 					"/>
				</g>
			</g>
		</g>
	</g>
	<rect x="231.11" y="14.29" class="st1" width="202.53" height="10.72"/>
	<text transform="matrix(1 0 0 1 241.0098 22.8816)" class="st2 st3">Data Sources (Monitoring Entities)</text>
	<g>
		<g>
			<rect x="313.89" y="70.35" class="st0" width="55.51" height="28.03"/>
			<rect x="313.89" y="79.56" class="st1" width="55.51" height="9.62"/>
			<text transform="matrix(1 0 0 1 320.6342 88.149)" class="st2 st3">Adapter</text>
		</g>
		<g>
			<rect x="313.89" y="29.68" class="st0" width="55.51" height="28.03"/>
			<rect x="313.89" y="31.6" class="st1" width="55.51" height="24.18"/>
			<text transform="matrix(1 0 0 1 320.3031 40.1949)"><tspan x="0" y="0" class="st2 st3">external</tspan><tspan x="11.67" y="14.4" class="st2 st3">API</tspan></text>
		</g>
		<g>
			<g>
				<line class="st0" x1="341.65" y1="70.35" x2="341.65" y2="61.3"/>
				<g>
					<polygon points="344.14,62.03 341.65,57.71 339.16,62.03 					"/>
				</g>
			</g>
		</g>
	</g>
	<g>
		<circle cx="389.65" cy="62.86" r="2.4"/>
		<circle cx="406.66" cy="62.86" r="2.4"/>
		<circle cx="398.15" cy="62.86" r="2.4"/>
	</g>
	<g>
		<g>
			<line class="st0" x1="286.78" y1="149.06" x2="286.78" y2="110.21"/>
			<g>
				<polygon points="289.28,110.94 286.78,106.63 284.29,110.94 				"/>
			</g>
		</g>
	</g>
	<g>
		<g>
			<line class="st0" x1="303.97" y1="106.63" x2="303.97" y2="145.47"/>
			<g>
				<polygon points="301.47,144.74 303.97,149.06 306.46,144.74 				"/>
			</g>
		</g>
	</g>
	<rect x="239.13" y="111.49" class="st1" width="44.79" height="26.66"/>
	<text transform="matrix(1 0 0 1 239.2285 120.0842)"><tspan x="0" y="0" class="st2 st3">Request </tspan><tspan x="6" y="14.4" class="st2 st3">Update</tspan></text>
	<rect x="306.57" y="111.49" class="st1" width="46.72" height="26.66"/>
	<text transform="matrix(1 0 0 1 306.5723 120.0843)"><tspan x="0" y="0" class="st2 st3">Provide</tspan><tspan x="0" y="14.4" class="st2 st3">Info</tspan></text>
	<g>
		<rect x="46.95" y="159.94" class="st0" width="64.47" height="37.51"/>
		<rect x="46.95" y="173.5" class="st1" width="64.47" height="10.37"/>
		<text transform="matrix(1 0 0 1 58.8462 182.0958)" class="st2 st3">Watson</text>
	</g>
	<g>
		<g>
			<line class="st0" x1="111.42" y1="171.68" x2="252.53" y2="171.68"/>
			<g>
				<polygon points="251.8,174.17 256.12,171.68 251.8,169.19 				"/>
			</g>
		</g>
	</g>
	<rect x="152.01" y="160.91" class="st1" width="64.12" height="10.79"/>
	<text transform="matrix(1 0 0 1 169.0571 169.4986)" class="st2 st3">Intent</text>
	<rect x="47.96" y="37.63" class="st0" width="118.73" height="85.58"/>
	<g>
		<g>
			<rect x="56.41" y="85.11" class="st0" width="55.51" height="28.03"/>
			<rect x="56.41" y="94.31" class="st1" width="55.51" height="9.62"/>
			<text transform="matrix(1 0 0 1 63.1533 102.9047)" class="st2 st3">Adapter</text>
		</g>
		<g>
			<rect x="56.41" y="44.44" class="st0" width="55.51" height="28.03"/>
			<rect x="56.41" y="53.72" class="st1" width="55.51" height="9.46"/>
			<text transform="matrix(1 0 0 1 57.4872 62.3113)" class="st2 st3">Chatclient</text>
		</g>
		<g>
			<g>
				<line class="st0" x1="84.17" y1="81.52" x2="84.17" y2="72.47"/>
				<g>
					<polygon points="86.66,80.79 84.17,85.11 81.67,80.79 					"/>
				</g>
			</g>
		</g>
	</g>
	<g>
		<circle cx="132.05" cy="79.06" r="2.4"/>
		<circle cx="149.06" cy="79.06" r="2.4"/>
		<circle cx="140.55" cy="79.06" r="2.4"/>
	</g>
	<g>
		<g>
			<line class="st0" x1="84.17" y1="113.14" x2="84.17" y2="156.35"/>
			<g>
				<polygon points="81.67,155.62 84.17,159.94 86.66,155.62 				"/>
			</g>
		</g>
	</g>
	<g>
		<g>
			<line class="st0" x1="256.12" y1="184.35" x2="115.01" y2="184.35"/>
			<g>
				<polygon points="115.74,181.86 111.42,184.35 115.74,186.85 				"/>
			</g>
		</g>
	</g>
	<rect x="86.52" y="127.36" class="st1" width="44.79" height="26.66"/>
	<text transform="matrix(1 0 0 1 86.523 135.9544)"><tspan x="0" y="0" class="st2 st3">Forward</tspan><tspan x="0" y="14.4" class="st2 st3">Request</tspan></text>
	<rect x="155.17" y="185.11" class="st1" width="63.96" height="10.19"/>
	<text transform="matrix(1 0 0 1 155.1715 193.7026)" class="st2 st3">Answerdata</text>
	<rect x="256.12" y="198.3" class="st1" width="158.98" height="13.19"/>
	<text transform="matrix(1 0 0 1 300.2578 206.8931)" class="st2 st3">Central Node</text>
	<g>
		<g>
			<rect x="258.06" y="278.06" class="st0" width="64.47" height="37.51"/>
			<rect x="258.06" y="284.04" class="st1" width="64.47" height="24.11"/>
			<text transform="matrix(1 0 0 1 279.2947 292.6277)"><tspan x="0" y="0" class="st2 st3">Skill</tspan><tspan x="-18.01" y="14.4" class="st2 st3">(Use case)</tspan></text>
		</g>
		<g>
			<rect x="346.44" y="278.06" class="st0" width="64.47" height="37.51"/>
			<rect x="346.44" y="284.04" class="st1" width="64.47" height="24.11"/>
			<text transform="matrix(1 0 0 1 367.6802 292.6277)"><tspan x="0" y="0" class="st2 st3">Skill</tspan><tspan x="-18.01" y="14.4" class="st2 st3">(Use case)</tspan></text>
		</g>
		<g>
			<circle cx="431.1" cy="296.81" r="2.4"/>
			<circle cx="448.11" cy="296.81" r="2.4"/>
			<circle cx="439.61" cy="296.81" r="2.4"/>
		</g>
		<g>
			<g>
				<g>
					<g>
						<line class="st0" x1="282.65" y1="278.06" x2="282.65" y2="218.51"/>
						<g>
							<polygon points="285.14,219.24 282.65,214.92 280.15,219.24 							"/>
						</g>
					</g>
				</g>
				<g>
					<g>
						<line class="st0" x1="299.83" y1="214.92" x2="299.83" y2="274.47"/>
						<g>
							<polygon points="297.34,273.74 299.83,278.06 302.32,273.74 							"/>
						</g>
					</g>
				</g>
			</g>
			<rect x="234.99" y="218.92" class="st1" width="44.79" height="55.51"/>
			<text transform="matrix(1 0 0 1 235.0929 227.5101)"><tspan x="0" y="0" class="st2 st3">Request </tspan><tspan x="19.35" y="14.4" class="st2 st3">Data</tspan><tspan x="36.69" y="28.8" class="st2 st3">&amp;</tspan><tspan x="4.68" y="43.2" class="st2 st3">Answer</tspan></text>
			<rect x="302.44" y="218.92" class="st1" width="46.72" height="55.51"/>
			<text transform="matrix(1 0 0 1 302.4376 227.5097)"><tspan x="0" y="0" class="st2 st3">Provide</tspan><tspan x="0" y="14.4" class="st2 st3">Info</tspan><tspan x="0" y="28.8" class="st2 st3">&amp;</tspan><tspan x="0" y="43.2" class="st2 st3">Request</tspan></text>
		</g>
		<g>
			<g>
				<g>
					<line class="st0" x1="369.52" y1="278.06" x2="369.52" y2="218.51"/>
					<g>
						<polygon points="372.02,219.24 369.52,214.92 367.03,219.24 						"/>
					</g>
				</g>
			</g>
			<g>
				<g>
					<line class="st0" x1="386.71" y1="214.92" x2="386.71" y2="274.47"/>
					<g>
						<polygon points="384.21,273.74 386.71,278.06 389.2,273.74 						"/>
					</g>
				</g>
			</g>
		</g>
	</g>
	<g>
		<g>
			<line class="st0" x1="72.55" y1="159.94" x2="72.55" y2="116.73"/>
			<g>
				<polygon points="75.04,117.46 72.55,113.14 70.06,117.46 				"/>
			</g>
		</g>
	</g>
	<rect x="24.55" y="127.36" class="st1" width="44.79" height="26.66"/>
	<text transform="matrix(1 0 0 1 29.3338 135.9544)"><tspan x="0" y="0" class="st2 st3">Answer</tspan><tspan x="16.68" y="14.4" class="st2 st3">Text</tspan></text>
</g>
<g id="More_frames" class="st4">
	<rect x="231.11" y="229.74" class="st5" width="202.53" height="66.5"/>
</g>
</svg>
